<svg xmlns="http://www.w3.org/2000/svg" version="1.0" width="500.000000pt" height="500.000000pt" viewBox="0 0 500.000000 500.000000" preserveAspectRatio="xMidYMid meet">

<g transform="translate(0.000000,500.000000) scale(0.100000,-0.100000)" fill="#ffffff" stroke="none">
<path d="M2141 3851 c-12 -16 -37 -62 -56 -103 -111 -236 -95 -492 46 -702 86 -129 194 -216 379 -304 58 -28 140 -73 183 -101 95 -62 229 -190 304 -289 60 -80 143 -230 173 -314 l19 -53 1 62 c0 73 -29 231 -60 322 -48 143 -126 267 -239 382 -92 93 -187 163 -396 294 -249 157 -342 261 -376 424 -17 84 -6 250 23 339 14 39 23 72 22 72 -1 0 -12 -13 -23 -29z" fill="#ffffff"/>
<path d="M1646 3453 c-29 -91 -39 -173 -34 -276 14 -256 148 -466 378 -590 84 -45 165 -71 324 -102 327 -65 600 -235 789 -494 26 -35 47 -61 47 -58 0 16 -64 175 -96 239 -77 152 -170 265 -299 361 -130 97 -254 150 -620 267 -174 55 -251 97 -324 175 -102 110 -145 231 -146 412 0 62 -1 113 -2 113 -1 0 -8 -21 -17 -47z" fill="#ffffff"/>
<path d="M1253 2875 c7 -128 26 -197 84 -315 86 -175 249 -307 450 -362 67 -18 99 -21 233 -18 439 8 479 5 653 -51 110 -36 265 -115 349 -178 110 -81 111 -76 10 51 -146 183 -289 289 -482 356 -131 46 -250 62 -530 73 -375 15 -448 35 -576 163 -80 81 -132 175 -162 293 -10 40 -22 76 -27 80 -4 5 -5 -37 -2 -92z" fill="#ffffff"/>
<path d="M3310 2770 c-19 -4 -60 -15 -91 -24 -31 -9 -91 -20 -133 -24 l-77 -7 41 -55 c56 -74 123 -216 154 -321 21 -73 45 -230 46 -296 1 -28 64 78 109 183 23 52 60 137 82 189 26 59 58 114 84 143 42 46 135 102 172 102 31 1 -6 16 -56 24 -24 4 -69 22 -100 41 -80 49 -149 63 -231 45z m148 -71 c3 -28 -16 -43 -43 -33 -15 6 -21 45 -8 58 16 16 48 1 51 -25z" fill="#ffffff"/>
<path d="M2497 1985 c-108 -18 -210 -51 -287 -91 -206 -108 -352 -340 -406 -647 -20 -116 -17 -132 10 -57 62 173 150 317 261 426 99 98 237 176 336 189 l44 6 -60 -31 c-146 -78 -235 -173 -286 -307 -9 -23 -4 -21 38 18 140 131 291 199 443 199 132 0 144 -13 88 -96 -69 -101 -240 -206 -448 -275 -55 -18 -99 -34 -97 -35 1 -2 65 8 142 21 315 53 581 177 714 332 52 60 107 164 98 186 -10 26 -123 104 -185 127 -128 48 -258 60 -405 35z" fill="#ffffff"/>
</g>
</svg>